<svg xmlns="http://www.w3.org/2000/svg" viewBox="0 0 1372.95 573.38" width="{width}" height="{height}">
  <path fill="#00b188" d="M440.45 105.57H29.37v-76.2h411.08v76.2zM469.82 0H0v134.92h469.82V0z"/>
  <path fill="#231f20" d="M29.37 357.92H0V222.99h29.37v53.32h52.47V223h29.36v134.93H81.84V302H29.37v55.92M155.68 298.76h34.98c-.65-9.92-4.75-16.84-16.2-16.84-8.64 0-16.2 3.68-18.78 16.84zm22.24 61.31c-29.8 0-50.1-18.78-50.1-49.64 0-30.01 19.87-50.73 46.21-50.73 28.72 0 42.97 19.2 42.97 47.92v10.8h-61.32c3.46 14.88 15.11 18.77 26.78 18.77 10.14 0 17.48-2.15 26.54-7.78h1.1v22.24c-7.78 5.62-18.8 8.42-32.18 8.42M293.64 301.36l-15.11 56.56h-25.7l-29.36-95v-1.07h28.07l15.98 56.78 15.11-56.78h22.89l15.33 56.78 16.2-56.78h26.99v1.08l-29.37 94.99h-25.7l-15.33-56.56M411.74 360.07c-23.31 0-32.82-9.28-32.82-31.07V223h28.5v104.05c0 6.7 2.6 9.07 8.2 9.07 1.95 0 4.76-.65 6.48-1.3h.44v23.53a34.3 34.3 0 01-10.8 1.72M458.39 298.76h34.98c-.65-9.92-4.75-16.84-16.2-16.84-8.63 0-16.2 3.68-18.78 16.84zm22.23 61.31c-29.8 0-50.08-18.78-50.08-49.64 0-30.01 19.86-50.73 46.2-50.73 28.72 0 42.97 19.2 42.97 47.92v10.8h-61.32c3.45 14.88 15.11 18.77 26.77 18.77 10.15 0 17.49-2.15 26.56-7.78h1.08v22.24c-7.77 5.62-18.78 8.42-32.18 8.42M636.73 261.85h21.16v22.88h-21.16v39.07c0 8.43 3.24 12.32 11.88 12.32 2.37 0 5.4-.23 8.64-1.3h.64v22.44c-3.67 1.3-9.28 2.8-17.48 2.8-23.11 0-32.18-10.57-32.18-34.96v-40.37h-36.49v39.07c0 8.43 3.24 12.32 11.87 12.32 2.38 0 5.4-.23 8.65-1.3h.64v22.44c-3.67 1.3-9.3 2.8-17.48 2.8-23.11 0-32.18-10.57-32.18-34.96v-40.37h-14.69v-22.88h14.69V235.5h28.5v26.34h36.49V235.5h28.5v26.34M753.92 289.27c14.91 0 22.02-8.42 22.02-20.5 0-12.54-7.1-20.95-22.02-20.95h-18.57v41.45h18.57zm51.83-20.5c0 29.36-19.65 45.32-49.46 45.32h-20.94v43.83H706V222.99h50.3c29.8 0 49.45 15.98 49.45 45.77M868.35 327.7v-8.2c-4.32-2.37-9.92-3.24-15.75-3.24-9.29 0-14.9 3.45-14.9 11.22 0 8 5.61 11.45 14.03 11.45 7.99 0 14.04-4.1 16.62-11.24zm.87 20.72c-6.26 7.56-15.54 11.23-25.49 11.23-18.77 0-34.11-11.43-34.11-31.74 0-18.78 15.34-31.3 37.35-31.3 6.91 0 14.05 1.08 21.38 3.23v-1.71c0-10.37-5.82-14.9-21.14-14.9-9.73 0-19.01 2.8-27 7.34h-1.08v-22.89c7.34-4.3 20.3-7.98 33.03-7.98 28.94 0 44.7 13.81 44.7 38v60.22h-27.64v-9.5M911.32 310c0-30.88 21.82-50.3 50.32-50.3 10.15 0 19.64 2.16 26.77 7.33v24.4h-1.09a35.77 35.77 0 00-22.01-7.56c-14.25 0-25.05 9.73-25.05 26.13s10.8 25.9 25.05 25.9c8.41 0 15.75-2.8 22.01-7.57h1.09v24.4c-7.13 5.19-16.62 7.34-26.77 7.34-28.5 0-50.32-19.2-50.32-50.07M1034.82 314.32v43.6h-28.5V222.99h28.5v76.85l28.72-38h32.39v1.09l-34.54 43.6 34.54 50.3v1.09h-32.6l-28.51-43.6M1159.84 327.7v-8.2c-4.31-2.37-9.93-3.24-15.76-3.24-9.28 0-14.9 3.45-14.9 11.22 0 8 5.62 11.45 14.02 11.45 8 0 14.05-4.1 16.64-11.24zm.86 20.72c-6.26 7.56-15.55 11.23-25.47 11.23-18.8 0-34.12-11.43-34.12-31.74 0-18.78 15.32-31.3 37.37-31.3 6.9 0 14.01 1.08 21.36 3.23v-1.71c0-10.37-5.83-14.9-21.16-14.9-9.7 0-19 2.8-27 7.34h-1.07v-22.89c7.34-4.3 20.3-7.98 33.03-7.98 28.95 0 44.7 13.81 44.7 38v60.22h-27.64v-9.5M1236.28 277.4c5.17-10.6 12.74-16.63 23.32-16.63 3.88 0 7.76.86 9.26 1.73v27.2h-1.07c-3.24-1.3-7.12-2.16-12.52-2.16-8.85 0-15.76 5.18-18.14 15.1v55.28h-28.49v-96.07h27.64v15.54M1344.44 325.32v-30.88c-4.74-6.9-11-9.92-18.14-9.92-12.5 0-20.93 9.08-20.93 25.48s8.42 25.25 20.93 25.25c7.14 0 13.4-3.02 18.14-9.93zm.86 22.67c-6.04 7.78-15.54 12.08-28.5 12.08-24.61 0-40.37-22.44-40.37-50.07 0-27.64 15.76-50.3 40.38-50.3 12.52 0 21.58 3.89 27.63 11V223h28.5v134.92h-27.64v-9.93M0 401.98h83.34v16.4H18.78v41.23H77.3v15.98H18.8v44.9h64.55v16.4H0V401.98M152.22 439.97c21.37 0 33.24 14.03 33.24 37.12v59.8h-17.91v-59.37c0-12.3-6.27-21.15-19.87-21.15a24.97 24.97 0 00-23.97 17.26v63.26H105.8v-94.98h17.91v13.82c5.62-8.86 15.12-15.76 28.5-15.76M233.62 441.91h24.4v15.33h-24.4v51.16c0 10.79 5.62 14.46 15.76 14.46 2.8 0 5.83-.42 7.99-1.29h.65v15.32c-2.59 1.08-6.26 1.95-11.22 1.95-22.25 0-31.1-10.16-31.1-28.7v-52.9h-16.4v-15.33h16.4v-25.24h17.92v25.24M288.03 480.11h47.29c-.65-14.02-7.56-24.81-22.24-24.81-13.6 0-22.46 10.14-25.05 24.81zm28.29 58.73c-27.86 0-46.86-18.57-46.86-48.36 0-29.8 17.7-50.51 43.4-50.51 26.13 0 39.73 18.78 39.73 46.62v8.21h-65.21c1.94 19.21 14.26 28.5 31.31 28.5 10.58 0 18.13-2.38 26.56-8.65h.65v15.77c-7.77 6.04-17.93 8.42-29.58 8.42M391.67 456.6c4.1-10.16 13.18-16.2 23.53-16.2 4.11 0 7.78.65 9.29 1.51v17.7h-.65c-2.6-1.29-6.91-1.94-11.23-1.94-9.7 0-17.92 6.47-20.94 17.27v61.95h-17.92v-94.98h17.92v14.68M482.35 522.64c17.7 0 28.07-14.03 28.07-33.25 0-18.99-10.37-33.23-28.07-33.23-9.72 0-18.79 5.83-23.53 15.1v36.5c4.74 9.27 13.8 14.88 23.53 14.88zm3.02-82.67c28.28 0 43.4 23.1 43.4 49.42 0 26.35-15.12 49.45-43.4 49.45-11.66 0-21.6-6.04-26.55-12.53v47.07h-17.93V441.91h17.93v10.79c4.96-6.7 14.89-12.73 26.55-12.73M567.85 456.6c4.1-10.16 13.17-16.2 23.53-16.2 4.1 0 7.77.65 9.28 1.51v17.7h-.64c-2.59-1.29-6.9-1.94-11.23-1.94-9.71 0-17.91 6.47-20.94 17.27v61.95h-17.92v-94.98h17.92v14.68M626.58 403.49c6.26 0 11.44 4.96 11.44 11.22 0 6.27-5.18 11.23-11.44 11.23-6.05 0-11.45-4.96-11.45-11.23 0-6.26 5.4-11.22 11.45-11.22M617.72 536.9h17.93V441.9h-17.93v94.98zM699.56 481.42c13.6 4.3 28.7 9.92 28.7 28.05 0 19.44-15.97 29.37-36.47 29.37-12.53 0-25.05-3.03-32.18-8.64v-17.05h.87c8 7.33 19.86 10.57 31.08 10.57 10.15 0 19.23-3.89 19.23-12.09 0-8.41-7.55-10.36-22.46-15.32-13.39-4.32-28.28-9.3-28.28-27.2 0-18.36 15.1-29.14 34.33-29.14 11.22 0 21.15 2.37 29.14 7.77V465h-.64a43.16 43.16 0 00-28.08-9.94c-11.22 0-17.49 4.97-17.49 11.67 0 7.55 6.91 9.7 22.25 14.68M762.39 480.11h47.28c-.65-14.02-7.55-24.81-22.24-24.81-13.6 0-22.45 10.14-25.04 24.81zm28.28 58.73c-27.85 0-46.85-18.57-46.85-48.36 0-29.8 17.7-50.51 43.4-50.51 26.13 0 39.72 18.78 39.72 46.62v8.21h-65.2c1.94 19.21 14.25 28.5 31.3 28.5 10.6 0 18.14-2.38 26.56-8.65h.65v15.77c-7.76 6.04-17.92 8.42-29.58 8.42"/>
</svg>