<svg xmlns="http://www.w3.org/2000/svg" fill="none" viewBox="0 0 680 241" width="{width}" height="{height}">
  <path fill="#6E6E70" d="M73.76 155.28h-32.3V29.86H.11V2.98h115v26.88H73.76v125.42zM226.25 155.28h-87.7V2.98h87.7v26.46h-55.41v33.44h51.56v26.46h-51.56v39.27h55.41v26.67zM347.92 112.98c0 13.76-4.95 24.59-14.84 32.5-9.9 7.92-23.67 11.88-41.3 11.88-16.25 0-30.63-3.06-43.13-9.17v-30c10.28 4.59 18.98 7.82 26.1 9.7 7.11 1.87 13.62 2.8 19.53 2.8 7.08 0 12.51-1.35 16.3-4.06 3.78-2.7 5.68-6.73 5.68-12.08 0-2.99-.84-5.64-2.5-7.97-1.67-2.33-4.12-4.57-7.35-6.72-3.23-2.15-9.8-5.59-19.74-10.31-9.3-4.38-16.28-8.58-20.94-12.6a47.28 47.28 0 01-11.14-14.07c-2.78-5.35-4.17-11.6-4.17-18.75 0-13.47 4.57-24.06 13.7-31.77C273.25 4.66 285.87.8 301.99.8c7.91 0 15.46.93 22.65 2.81 7.19 1.88 14.7 4.52 22.55 7.92l-10.41 25.1c-8.13-3.33-14.85-5.66-20.16-6.98a64.9 64.9 0 00-15.68-1.98c-6.1 0-10.8 1.43-14.06 4.27-3.26 2.85-4.9 6.57-4.9 11.15 0 2.85.66 5.33 1.98 7.45 1.32 2.12 3.42 4.16 6.3 6.14 2.89 1.98 9.71 5.54 20.47 10.68 14.24 6.8 24 13.63 29.27 20.47 5.28 6.84 7.92 15.23 7.92 25.16zM463.23 155.28h-87.7V2.98h87.7v26.46h-55.41v33.44h51.56v26.46h-51.56v39.27h55.41v26.67zM587.82 78.5c0-32.7-14.45-49.06-43.34-49.06H527.3v99.17h13.85c31.11 0 46.67-16.7 46.67-50.1zm33.54-.83c0 25.07-7.14 44.27-21.4 57.6-14.28 13.34-34.89 20-61.83 20h-43.12V2.99h47.8c24.87 0 44.17 6.57 57.93 19.7 13.74 13.12 20.62 31.45 20.62 55z"/>
  <path fill="#6E6D6C" d="M674.5 155.28h-32V62.83h32v92.45z"/>
  <path fill="#0A71B4" d="M679.92 24.83a21.83 21.83 0 11-43.67 0 21.83 21.83 0 0143.67 0z"/>
  <g opacity=".8">
    <path fill="#1A171B" d="M143.55 232h-3.08l4.96-23.47h-7.27l.6-2.7h17.63l-.54 2.7h-7.3l-5 23.47zM164.4 214.58c-1.24 0-2.4.56-3.47 1.68a10.99 10.99 0 00-2.48 4.68h.21c2.72 0 4.81-.36 6.26-1.07 1.45-.71 2.18-1.74 2.18-3.09a2.1 2.1 0 00-.66-1.57c-.43-.42-1.12-.63-2.05-.63zm-2.5 17.78c-2.2 0-3.92-.65-5.17-1.95-1.25-1.3-1.88-3.1-1.88-5.41 0-2.25.44-4.4 1.33-6.45a11.94 11.94 0 013.54-4.81 7.7 7.7 0 014.85-1.72c1.83 0 3.2.4 4.12 1.19.92.8 1.38 1.9 1.38 3.32 0 2.15-1 3.84-2.97 5.06-1.98 1.22-4.82 1.83-8.5 1.83h-.6l-.07 1.44c0 1.56.37 2.78 1.1 3.66.73.87 1.87 1.31 3.41 1.31.75 0 1.53-.1 2.32-.32.8-.21 1.78-.6 2.96-1.18v2.61a12 12 0 01-5.82 1.41M180.24 232.36c-2.32 0-4.12-.64-5.4-1.92-1.27-1.28-1.9-3.08-1.9-5.4 0-2.4.43-4.6 1.32-6.61.88-2.02 2.1-3.6 3.66-4.72a8.74 8.74 0 015.25-1.7c1.64 0 3.24.31 4.8.92l-.84 2.53c-1.43-.61-2.74-.92-3.92-.92a5.6 5.6 0 00-3.66 1.37 9.02 9.02 0 00-2.6 3.82c-.63 1.63-.94 3.4-.94 5.3 0 1.53.4 2.72 1.2 3.57a4.3 4.3 0 003.28 1.27 8.1 8.1 0 002.43-.36c.77-.24 1.52-.52 2.26-.84v2.56a10.75 10.75 0 01-4.94 1.13zM200.74 232l2.65-12.39c.21-1.12.32-1.93.32-2.42 0-1.76-.88-2.65-2.63-2.65-1.07 0-2.1.36-3.11 1.06a9.3 9.3 0 00-2.67 3.07 16.54 16.54 0 00-1.74 4.86l-1.81 8.47h-3l5.9-27.86h3a605.34 605.34 0 00-1.22 5.65 226.7 226.7 0 01-1.53 6.36h.2a11.95 11.95 0 013.32-3.15 6.73 6.73 0 013.43-.95c1.56 0 2.77.43 3.62 1.3.85.85 1.28 2.07 1.28 3.65 0 .74-.13 1.73-.4 2.97-.47 2.3-1.34 6.31-2.6 12.03h-3.01zM221.9 232l2.65-12.39c.24-1.24.36-2.1.36-2.58 0-.75-.22-1.35-.64-1.8-.42-.46-1.1-.69-2.03-.69-1.06 0-2.1.36-3.1 1.08-1.02.71-1.9 1.73-2.68 3.06a16.15 16.15 0 00-1.74 4.82l-1.8 8.5h-3.02l4.2-19.62h2.48l-.4 3.63h.19a11.98 11.98 0 013.32-3.09 6.7 6.7 0 013.32-.9 5 5 0 013.59 1.24 4.56 4.56 0 011.31 3.49c0 .94-.13 2.01-.4 3.22L224.93 232h-3.04zM245.75 219.27a4.9 4.9 0 00-1.12-3.34 3.83 3.83 0 00-3.04-1.28c-1.3 0-2.47.44-3.5 1.33a8.53 8.53 0 00-2.4 3.67 15.33 15.33 0 00-.85 5.24c0 1.57.38 2.77 1.14 3.63.76.85 1.85 1.28 3.27 1.28 1.24 0 2.35-.44 3.35-1.31a8.54 8.54 0 002.31-3.71c.56-1.61.84-3.44.84-5.51zm-4.23-7.14c2.27 0 4.06.67 5.37 2.01 1.32 1.34 1.97 3.19 1.97 5.54 0 2.25-.43 4.36-1.29 6.36-.86 1.99-2.02 3.53-3.49 4.62a8.16 8.16 0 01-4.98 1.63c-2.29 0-4.08-.68-5.38-2.03-1.3-1.35-1.96-3.19-1.96-5.53 0-2.27.44-4.4 1.31-6.4.87-2 2.05-3.53 3.53-4.6a8.22 8.22 0 014.92-1.6M254.6 232h-3l5.95-27.86h3L254.61 232zM275.63 219.27a4.9 4.9 0 00-1.12-3.34 3.82 3.82 0 00-3.04-1.28c-1.3 0-2.46.44-3.5 1.33a8.53 8.53 0 00-2.4 3.67 15.36 15.36 0 00-.84 5.24c0 1.57.37 2.77 1.13 3.63.76.85 1.85 1.28 3.27 1.28 1.24 0 2.36-.44 3.35-1.31.99-.87 1.76-2.1 2.32-3.71.55-1.61.83-3.44.83-5.51zm-4.23-7.14c2.27 0 4.06.67 5.37 2.01 1.32 1.34 1.97 3.19 1.97 5.54 0 2.25-.43 4.36-1.29 6.36-.85 1.99-2.02 3.53-3.49 4.62a8.16 8.16 0 01-4.97 1.63c-2.3 0-4.1-.68-5.4-2.03-1.3-1.35-1.94-3.19-1.94-5.53 0-2.27.43-4.4 1.3-6.4.87-2 2.05-3.53 3.53-4.6a8.22 8.22 0 014.92-1.6M286.07 219.82c0 1.02.26 1.8.8 2.32.54.54 1.28.8 2.24.8.94 0 1.76-.25 2.47-.75.7-.5 1.24-1.2 1.62-2.07.38-.88.56-1.83.56-2.86 0-.97-.26-1.72-.78-2.23-.53-.52-1.28-.77-2.26-.77-.93 0-1.75.24-2.44.72a4.75 4.75 0 00-1.63 2.03c-.4.86-.58 1.8-.58 2.81zm-4.98 15.67c0 .92.39 1.65 1.16 2.19.78.53 1.93.8 3.46.8 2.17 0 3.87-.38 5.09-1.14a3.58 3.58 0 001.84-3.2 2 2 0 00-.97-1.76c-.65-.43-1.74-.73-3.3-.9l-2.84-.29c-1.43.3-2.53.83-3.3 1.58a3.68 3.68 0 00-1.14 2.72zm19.06-23.11l-.44 1.91-3.78.43c.49.74.73 1.69.73 2.83 0 2.28-.7 4.1-2.08 5.45-1.4 1.36-3.25 2.03-5.58 2.03-.66 0-1.16-.04-1.5-.14-1.66.63-2.49 1.42-2.49 2.35 0 .49.2.81.59.97.4.16.97.3 1.72.39l2.1.25c2.15.26 3.72.79 4.7 1.57.97.8 1.45 1.95 1.45 3.48 0 2.2-.87 3.9-2.61 5.1-1.75 1.2-4.2 1.8-7.36 1.8-2.32 0-4.13-.43-5.44-1.3a4.21 4.21 0 01-1.97-3.72 4.6 4.6 0 011.29-3.26c.86-.92 2.25-1.7 4.17-2.34-.93-.5-1.4-1.22-1.4-2.17 0-.83.3-1.53.91-2.13a9.52 9.52 0 012.55-1.65 4.67 4.67 0 01-2.56-4.3c0-2.31.71-4.21 2.14-5.69a7.26 7.26 0 015.47-2.22c.93 0 1.85.12 2.75.36h6.64zM301.5 212.38h3.01l1.32 9.75c.12.83.24 2.04.35 3.65.12 1.6.17 2.9.17 3.88h.11a81.5 81.5 0 012.94-6.38l5.82-10.9h3.18l-12.46 22.95c-1.1 2.05-2.2 3.48-3.3 4.28-1.08.8-2.39 1.2-3.91 1.2-.86 0-1.7-.13-2.5-.38v-2.41c.74.21 1.52.32 2.34.32.98 0 1.81-.3 2.51-.9a9.8 9.8 0 002.03-2.68l1.36-2.44-2.97-19.94zM316.72 230.67c0-.91.24-1.64.73-2.19a2.54 2.54 0 012-.81c.5 0 .92.15 1.24.46.31.31.47.78.47 1.42 0 .84-.24 1.55-.72 2.12a2.4 2.4 0 01-1.93.85 1.8 1.8 0 01-1.3-.47c-.33-.3-.49-.77-.49-1.38zM351.1 224.4c0 2.53-.84 4.48-2.52 5.87-1.68 1.4-4.04 2.09-7.08 2.09-1.26 0-2.38-.09-3.34-.26s-1.87-.47-2.71-.87v-3.04c1.93 1 3.96 1.5 6.09 1.5 1.93 0 3.46-.45 4.6-1.35a4.48 4.48 0 001.7-3.72c0-.93-.32-1.75-.94-2.46-.63-.7-1.8-1.55-3.5-2.51-1.8-1.02-3.05-2.03-3.75-3.05a6.2 6.2 0 01-1.05-3.6c0-2.23.79-4.04 2.36-5.45 1.58-1.4 3.65-2.1 6.22-2.1 1.18 0 2.28.11 3.3.34 1.02.22 2.1.61 3.23 1.16l-1.18 2.69c-.79-.45-1.67-.81-2.65-1.08-.98-.26-1.88-.39-2.7-.39-1.6 0-2.89.42-3.86 1.24a4.2 4.2 0 00-1.46 3.38c0 .64.1 1.2.3 1.66.2.46.53.89.97 1.3.44.4 1.29.97 2.54 1.7a21.64 21.64 0 013.56 2.47c.61.6 1.07 1.25 1.4 1.97.3.73.47 1.56.47 2.52zM364.45 214.58c-1.23 0-2.38.56-3.46 1.68a11 11 0 00-2.48 4.68h.21c2.72 0 4.81-.36 6.26-1.07 1.45-.71 2.18-1.74 2.18-3.09a2.1 2.1 0 00-.66-1.57c-.43-.42-1.12-.63-2.05-.63zm-2.49 17.78c-2.2 0-3.92-.65-5.17-1.95-1.25-1.3-1.88-3.1-1.88-5.41 0-2.25.44-4.4 1.33-6.45a11.96 11.96 0 013.54-4.81 7.7 7.7 0 014.85-1.72c1.83 0 3.2.4 4.12 1.19.92.8 1.38 1.9 1.38 3.32 0 2.15-1 3.84-2.97 5.06-1.99 1.22-4.82 1.83-8.5 1.83h-.6l-.07 1.44c0 1.56.37 2.78 1.1 3.66.73.87 1.87 1.31 3.41 1.31.75 0 1.53-.1 2.32-.32.8-.21 1.78-.6 2.96-1.18v2.61a12 12 0 01-5.82 1.41M384.7 212.02c.82 0 1.54.08 2.15.25l-.64 2.69a7.94 7.94 0 00-1.88-.24c-1.1 0-2.1.36-3.06 1.08a9.4 9.4 0 00-2.49 2.98 15.2 15.2 0 00-1.56 4.23L375.3 232h-3l4.19-19.62h2.48l-.4 3.63h.19a17.6 17.6 0 012.13-2.44c.56-.5 1.15-.88 1.76-1.15.62-.27 1.3-.4 2.05-.4zM389.75 232l-2.24-19.62h3l1.16 10.97c.28 3.08.43 5.24.43 6.48h.1a140.6 140.6 0 013.2-6.64l5.83-10.81h3.18L393.83 232h-4.08zM408.78 207.36c0-.66.2-1.21.58-1.63a1.9 1.9 0 011.48-.64c1.05 0 1.58.54 1.58 1.61 0 .66-.2 1.21-.6 1.67-.4.45-.87.68-1.4.68-.47 0-.86-.15-1.17-.44-.31-.3-.47-.71-.47-1.25zM406.76 232h-3l4.18-19.62h3L406.77 232zM421.06 232.36c-2.31 0-4.1-.64-5.38-1.92-1.28-1.28-1.92-3.08-1.92-5.4 0-2.4.44-4.6 1.32-6.61.89-2.02 2.1-3.6 3.67-4.72a8.74 8.74 0 015.25-1.7c1.64 0 3.24.31 4.8.92l-.84 2.53c-1.44-.61-2.74-.92-3.92-.92a5.6 5.6 0 00-3.67 1.37 9 9 0 00-2.6 3.82c-.62 1.63-.93 3.4-.93 5.3 0 1.53.4 2.72 1.19 3.57.8.84 1.89 1.27 3.28 1.27.86 0 1.67-.12 2.44-.36.76-.24 1.51-.52 2.25-.84v2.56a10.75 10.75 0 01-4.94 1.13zM439.8 214.58c-1.22 0-2.38.56-3.46 1.68a10.99 10.99 0 00-2.47 4.68h.2c2.73 0 4.82-.36 6.26-1.07 1.46-.71 2.18-1.74 2.18-3.09a2.1 2.1 0 00-.65-1.57c-.44-.42-1.12-.63-2.05-.63zm-2.48 17.78c-2.2 0-3.92-.65-5.17-1.95-1.26-1.3-1.88-3.1-1.88-5.41 0-2.25.44-4.4 1.33-6.45a11.96 11.96 0 013.53-4.81 7.71 7.71 0 014.86-1.72c1.82 0 3.2.4 4.12 1.19.91.8 1.38 1.9 1.38 3.32 0 2.15-1 3.84-2.98 5.06-1.98 1.22-4.81 1.83-8.5 1.83h-.6l-.07 1.44c0 1.56.37 2.78 1.1 3.66.74.87 1.88 1.31 3.42 1.31.75 0 1.52-.1 2.31-.32.8-.21 1.78-.6 2.97-1.18v2.61a12 12 0 01-5.82 1.41M459.75 226.43c0 1.86-.66 3.32-1.98 4.36-1.31 1.05-3.17 1.57-5.57 1.57a11.9 11.9 0 01-5.46-1.24v-2.83a11.2 11.2 0 005.39 1.58c1.5 0 2.63-.3 3.4-.9a2.78 2.78 0 001.14-2.29c0-.68-.2-1.25-.62-1.72a12.7 12.7 0 00-2.7-1.91 10.87 10.87 0 01-3.3-2.56 4.72 4.72 0 01-.97-2.98c0-1.64.6-2.97 1.81-3.98 1.2-1 2.8-1.51 4.76-1.51 2.04 0 4.02.44 5.91 1.32l-.97 2.46-1-.45a9.96 9.96 0 00-3.94-.77c-1.1 0-1.98.26-2.61.78-.63.52-.95 1.19-.95 2.01 0 .67.21 1.25.64 1.72.42.48 1.3 1.1 2.62 1.84 1.28.72 2.2 1.34 2.75 1.85a4.68 4.68 0 011.66 3.65zM462.33 230.67c0-.91.25-1.64.73-2.19a2.53 2.53 0 012-.81c.5 0 .92.15 1.24.46.31.31.47.78.47 1.42 0 .84-.24 1.55-.71 2.12a2.4 2.4 0 01-1.94.85 1.8 1.8 0 01-1.3-.47c-.33-.3-.49-.77-.49-1.38zM488.4 229.37c2.41 0 4.53-.55 6.36-1.64a10.74 10.74 0 004.2-4.63c.97-2 1.45-4.27 1.45-6.84 0-2.56-.61-4.5-1.84-5.82-1.23-1.32-3.03-1.98-5.4-1.98h-3.2l-4.47 20.9h2.9zm15.24-13.07c0 3.11-.63 5.86-1.88 8.25a13.14 13.14 0 01-5.38 5.51 16.61 16.61 0 01-8.18 1.94h-6.3l5.53-26.18h6.13c3.29 0 5.8.9 7.5 2.68 1.72 1.78 2.58 4.38 2.58 7.8zM510.87 207.36c0-.66.2-1.21.57-1.63a1.9 1.9 0 011.49-.64c1.05 0 1.57.54 1.57 1.61 0 .66-.2 1.21-.6 1.67-.4.45-.86.68-1.38.68-.48 0-.88-.15-1.19-.44-.3-.3-.46-.71-.46-1.25zM508.85 232h-3.01l4.19-19.62h3L508.85 232zM527.25 226.43c0 1.86-.66 3.32-1.98 4.36-1.32 1.05-3.18 1.57-5.57 1.57a11.9 11.9 0 01-5.47-1.24v-2.83a11.2 11.2 0 005.4 1.58c1.5 0 2.63-.3 3.4-.9a2.78 2.78 0 001.14-2.29c0-.68-.2-1.25-.63-1.72-.41-.46-1.31-1.1-2.7-1.91a10.88 10.88 0 01-3.3-2.56 4.72 4.72 0 01-.96-2.98c0-1.64.6-2.97 1.8-3.98 1.21-1 2.8-1.51 4.77-1.51 2.04 0 4.01.44 5.9 1.32l-.96 2.46-1-.45a9.97 9.97 0 00-3.94-.77c-1.1 0-1.98.26-2.61.78-.64.52-.95 1.19-.95 2.01 0 .67.2 1.25.63 1.72.43.48 1.3 1.1 2.63 1.84 1.27.72 2.19 1.34 2.74 1.85a4.67 4.67 0 011.66 3.65zM536.87 229.9c.65 0 1.51-.15 2.57-.46v2.31c-.4.17-.9.3-1.5.43-.6.12-1.08.18-1.43.18-1.5 0-2.64-.36-3.43-1.07-.8-.7-1.2-1.77-1.2-3.18 0-.78.12-1.68.33-2.68l2.27-10.78h-3.08l.25-1.3 3.32-1.4 2.24-4.08h1.75l-.99 4.5h4.91l-.47 2.28h-4.88l-2.31 10.81a12.74 12.74 0 00-.33 2.37c0 .67.18 1.18.52 1.54.35.36.84.53 1.46.53zM555.14 212.02c.83 0 1.54.08 2.15.25l-.64 2.69a7.94 7.94 0 00-1.88-.24c-1.09 0-2.1.36-3.05 1.08a9.4 9.4 0 00-2.5 2.98 15.18 15.18 0 00-1.56 4.23l-1.91 8.99h-3.01l4.19-19.62h2.49l-.4 3.63h.18a17.73 17.73 0 012.13-2.44 6.8 6.8 0 011.76-1.15c.62-.27 1.3-.4 2.05-.4zM562.29 207.36c0-.66.19-1.21.57-1.63a1.9 1.9 0 011.49-.64c1.05 0 1.57.54 1.57 1.61 0 .66-.2 1.21-.6 1.67-.4.45-.86.68-1.39.68-.47 0-.87-.15-1.18-.44-.3-.3-.46-.71-.46-1.25zM560.26 232h-3l4.19-19.62h3L560.26 232zM578.6 214.54c-1.15 0-2.31.57-3.5 1.7a12.11 12.11 0 00-2.83 4.28 13.88 13.88 0 00-1.05 5.28c0 1.32.33 2.32 1 3.02.66.7 1.62 1.05 2.87 1.05 1.18 0 2.28-.49 3.3-1.45a10.18 10.18 0 002.46-4.13c.62-1.78.94-3.68.94-5.68 0-2.71-1.07-4.07-3.2-4.07zm-3.33 17.82c-1.16 0-2.18-.3-3.05-.92a5.6 5.6 0 01-1.98-2.48h-.18L568.8 232h-2.23l5.9-27.86h3.01l-1.4 6.64a92.42 92.42 0 01-1.35 5.38h.16c1.1-1.41 2.2-2.45 3.28-3.11a6.3 6.3 0 013.34-1c1.68 0 3 .6 3.94 1.78.94 1.18 1.41 2.8 1.41 4.87 0 2.5-.4 4.8-1.22 6.92a11.6 11.6 0 01-3.42 4.96 7.65 7.65 0 01-4.95 1.78M594.75 212.38l-2.69 12.44c-.21 1.06-.32 1.9-.32 2.49 0 1.7.88 2.56 2.63 2.56 1.05 0 2.08-.36 3.1-1.08a9.56 9.56 0 002.68-3.07 16.52 16.52 0 001.78-4.84l1.79-8.5h2.97L602.55 232h-2.48l.39-3.63h-.22a11.72 11.72 0 01-3.35 3.11 6.74 6.74 0 01-3.29.88 5 5 0 01-3.6-1.25c-.87-.83-1.3-2.01-1.3-3.55 0-.74.13-1.77.39-3.08l2.62-12.1h3.04zM614.9 229.9c.66 0 1.52-.15 2.59-.46v2.31c-.41.17-.91.3-1.5.43-.6.12-1.08.18-1.44.18-1.5 0-2.64-.36-3.43-1.07-.8-.7-1.19-1.77-1.19-3.18 0-.78.1-1.68.32-2.68l2.27-10.78h-3.07l.25-1.3 3.3-1.4 2.25-4.08H617l-.98 4.5h4.9l-.46 2.28h-4.9l-2.3 10.81a12.74 12.74 0 00-.32 2.37c0 .67.17 1.18.52 1.54.34.36.83.53 1.45.53zM625.81 207.36c0-.66.2-1.21.57-1.63.38-.43.88-.64 1.49-.64 1.05 0 1.58.54 1.58 1.61 0 .66-.2 1.21-.6 1.67-.4.45-.87.68-1.4.68-.47 0-.86-.15-1.18-.44-.3-.3-.46-.71-.46-1.25zM623.79 232h-3.01l4.19-19.62h3L623.8 232zM644.77 219.27a4.9 4.9 0 00-1.12-3.34 3.83 3.83 0 00-3.03-1.28c-1.3 0-2.47.44-3.5 1.33a8.52 8.52 0 00-2.4 3.67 15.3 15.3 0 00-.86 5.24c0 1.57.38 2.77 1.14 3.63.76.85 1.85 1.28 3.27 1.28 1.24 0 2.36-.44 3.35-1.31a8.52 8.52 0 002.32-3.71c.55-1.61.83-3.44.83-5.51zm-4.23-7.14c2.27 0 4.06.67 5.38 2.01 1.3 1.34 1.97 3.19 1.97 5.54 0 2.25-.43 4.36-1.3 6.36-.85 1.99-2.02 3.53-3.49 4.62a8.17 8.17 0 01-4.97 1.63c-2.3 0-4.1-.68-5.4-2.03-1.3-1.35-1.94-3.19-1.94-5.53 0-2.27.43-4.4 1.3-6.4.87-2 2.05-3.53 3.53-4.6a8.22 8.22 0 014.92-1.6M662.66 232l2.65-12.39c.23-1.24.35-2.1.35-2.58 0-.75-.2-1.35-.63-1.8-.43-.46-1.1-.69-2.03-.69a5.3 5.3 0 00-3.11 1.08c-1 .71-1.9 1.73-2.67 3.06a16.07 16.07 0 00-1.74 4.82l-1.81 8.5h-3.01l4.2-19.62h2.48l-.4 3.63h.18a11.97 11.97 0 013.33-3.09c1.06-.6 2.17-.9 3.32-.9a5 5 0 013.59 1.24 4.55 4.55 0 011.31 3.49c0 .94-.14 2.01-.41 3.22L665.7 232h-3.04zM670.8 230.67c0-.91.25-1.64.73-2.19a2.53 2.53 0 012-.81c.5 0 .92.15 1.24.46.32.31.47.78.47 1.42 0 .84-.24 1.55-.71 2.12a2.4 2.4 0 01-1.94.85 1.8 1.8 0 01-1.3-.47c-.33-.3-.49-.77-.49-1.38z" opacity=".8"/>
  </g>
</svg>